<?xml version="1.0" encoding="UTF-8"?>
<svg id="Calque_2" data-name="Calque 2" xmlns="http://www.w3.org/2000/svg" viewBox="0 0 1988.74 2097.76">
  <defs>
    <style>
      .cls-1 {
        fill: #1d1d1b;
      }
    </style>
  </defs>
  <path class="cls-1" d="M1969.12,1851.11c-35.15-55.62-107.82-69.45-156.94-56.15-6.16,1.67-11.14,3.54-14.54,4.94-5.55,2.76-8.45,5.33-9.43,4.42-1.22-1.13,1.91-6.31,5.66-13.82,3.24-6.49,5.74-13.35,8.74-19.95,79.42-174.59,74.49-319.1,74.49-319.1-2.78-81.6-25.44-141.34-50.24-198.39-114.85-264.22-340.67-405.85-360.39-417.87-88.36-53.87-226.44-138.05-400.41-123.71-126.16,10.4-281.84,73.48-283.28,68.55-.19-.66,2.57-1.86,12.75-9.83,7.99-6.25,13.34-11.03,15.73-13.11,21.36-18.58,102.37-79.11,145.2-123.14,44.02-45.24,64.29-90.07,95.24-158.48,18-39.79,28.68-76.03,50.06-148.5,21.97-74.5,21.54-88.04,14.68-99.41-22.86-37.91-104.77-31.05-154.5-16.6-69.02,20.05-137.74,70.26-141.71,63.94-.31-.49-.45-3.18-.71-8.56-.23-4.68-.21-8.14-.21-8.35.02-3.83-2.95-69.99-22.08-131.12-13.64-43.59-37.06-118.4-83.18-126.21-44.35-7.51-86.68,50.81-104.16,74.9-41.93,57.76-51.51,117.7-60.73,179.76-10.19,68.56-2.41,78.83-12.88,201.43-9.74,114.02-19.87,145.04-43.25,157.15-15.17,7.86-21.09-2.56-91.83,5.46-39.92,4.53-60.55,11.25-66.9,13.4-30.49,10.32-51.38,24.02-61.56,30.69-83.49,54.73-165.14,173.09-165.35,173.4h0c-23.11,40.62-41.32,75.05-54.2,100.1C4.94,1030.79-.18,1054.47,0,1078.85c.34,44.25,18.12,76.91,24.29,87.41,28.99,49.27,74.92,68.65,111.06,83.9,63.28,26.69,133.36,29.96,153.58,25.18,0,0,8.57-2.02,9.18-.38.81,2.16-13.89,6.09-25.01,19.38-7.57,9.05-5.03,12.34-14.35,26.22-7.57,11.26-11.34,12.21-17.67,20.9-9.46,12.99-12.15,26.1-14.35,36.86-15.24,74.41,5.52,150.12,5.52,150.12,25.61,93.37,84.66,201.86,120.73,248.17,4.42,5.68,15.45,19.35,20.24,40.29,3.16,13.8,2.83,27.38-5.15,64.99-7.55,35.59-11.33,53.38-18.4,71.83-18.99,49.54-39.75,90.07-39.75,90.07-2.89,5.97-9.58,18.47-6.63,33.06,1.98,9.79,7.49,16.81,11.41,20.9h91.42c-3.34-6.18-7.66-15.82-9.48-28.17-2.51-17.09,1.1-30.16,6.53-50.07,16.6-60.89,13.65-52,16.01-59.29,15.65-48.29,20.13-51.55,33.13-91.21,8.89-27.15,14.03-47.71,21.8-78.75,9.99-39.96,15.84-69.15,18.5-82.01,0,0,16.43-79.23,44.72-167.6,24.62-76.91,134.67-267.14,295.47-277.63,15.98-1.04,55.99-3.21,100.3,15.58,60.31,25.58,92.09,74.51,196.18,150.31,12.43,9.05,22.62,16.1,37.65,18.28,29.55,4.28,56.34-13.39,125.68-77.19,23.75-21.85,53.58-50.12,87.32-84.18-.17-8.34.37-33.72,17.76-57.1,5.05-6.79,20.18-27.13,46.65-31.35,23.61-3.76,44.04,7.27,54.38,15.68,17.09,13.89,24.71,25.37,24.71,25.37,3.47,5.23,5.27,9.14,10.35,12.26,7.23,4.43,13.12,2.34,23.19,3.71,8.76,1.19,13.95,4.08,23.74,8.84,25.23,12.26,1.29-1.8,82.13,36.82,71.08,33.96,76.38,38.53,87.23,39.34,1.69.13,6.79.41,10.95,4.08,7.67,6.78,9.18,22.53,4.15,34.4-5.69,13.41-19.44,21.18-25.03,31.54-2.53,4.69-4.62,9.7-4.62,9.7-1.37,3.29-2.22,5.79-2.3,6-10.46,28.29-59.8,44.52-74.75,49.71-38.95,13.53-77.7,31.37-99.65,44.47-50.24,29.96-76.79,73.35-88.06,91.78-1.81,2.96-3.68,6.14-5.62,9.89-16.67,32.23-31.22,75.58-39.37,168.26-6.01,68.37-5.15,138.54,3.17,212.54,1.71,15.21,3.44,27.77,4.69,36.34,14.65,18.76,27.6,23.73,36.71,24.8,8.68,1.02,39.23,1.49,48.22,2,1.38.08,4.61.3,7.59,2.52,2.3,1.71,3.59,3.97,4.32,5.65,171.43-2.68,296.29-5.05,322.52-5.33,5.75-.06,21.55-.18,42.05-4.36,13.17-2.69,23.03-5.98,25.23-6.77,32.47-11.55,62.12-61.77,67.24-112.42,1.47-14.54,5.57-55.12-18.4-93.06ZM385.51,957.23c-1.24,1.5-28.49,33.39-58.34,23.18-26.18-8.96-33.67-43.24-32.94-63.09.23-6.16.77-20.89,10.86-33.58,14.4-18.1,37.57-18.64,47.66-18.87,12.09-.28,28.97-.67,40.12,10.64,18.1,18.36,12.04,58.33-7.36,81.71Z"/>
  <path class="cls-1" d="M1610.07,1375.48c12.58.09,18.84-17.37,19.14-18.24.85-2.48,4.35-12.67-.74-19.19-3.03-3.88-7.64-4.6-16.01-5.89-7.36-1.14-11.03-1.71-14.54.38-6.41,3.81-7.62,13.48-7.18,19.19.81,10.36,8.37,23.68,19.32,23.75Z"/>
  <path class="cls-1" d="M615.83,1954.87c-14.84-9.46-31.69-9.3-43.62-7.7l-60.87,65.84c5.12,3.25,10.95,7.76,16.56,13.97,16.38,18.13,20.45,39.3,21.67,49.17l.55,17.53h144.93c-17.84-23.55-29.24-44.64-36.44-59.86-18.95-40.07-20.9-65.01-42.79-78.96Z"/>
  <path class="cls-1" d="M1080.59,1943.78s-38.95-85.71-177.71-161.17c-2.33-1.27-6.75-3.42-11.04-1.9-7.79,2.75-9.99,15.73-10.67,19.38-1.59,8.44-14.99,36.18-41.8,91.67-1.13,2.35.04-.13-43.22,78.97-11.52,21.06-22.25,41.34-14.97,60.05,3.27,8.39,8.95,13.34,12.02,15.96,27.9,23.75,64.93.7,87.6,22.8,3.22,3.14,8.11,9.1,11.04,20.14h245.13l-31.29-61.95c-5.94-37.02-16.62-65.3-25.1-83.96Z"/>
  <path class="cls-1" d="M1253.92,1931.78c-24.69-3.59-37.03-5.39-44.44.29-7.7,5.89-6.05,14.22-8.01,60.71-1.68,39.81-3.7,52.82,5.52,61,3.6,3.19,10.04,4.41,22.91,6.84,23.06,4.36,36.32,1.36,44.17,10.99,2.23,2.73,3.31,5.6,3.86,7.53h95.51l-86.68-140.52c-7.98-2.18-19.22-4.86-32.85-6.84Z"/>
</svg>